Patient4_TMGait_0pt4_02_left_08_EMG.mot
version=1
nRows=23
nColumns=33
inDegrees=no
endheader
time	1LAddLong	2LGlutMax	3LGlutMed	4LIliopsoas	5LSemiMemb	6LBicFemLong	7LRecFem	8LVastMed	9LVastLat	10LGasMed	11LTibAnt	12lTibPost	13LPeroneusLong	14LSol	15LExtDigLong	16LFlexDigLong	17RAddLong	18RGlutMax	19RGlutMed	20RIliopsoas	21RSemiMemb	22RBicFemLong	23RRecFem	24RVastMed	25RVastLat	26RGasMed	27RTibAnt	28RTibPost	29RPeroneusLong	30RSol	31RExtDigLong	32RFlexDigLong
11.217	0.010223	-0.16647	0.04837	-0.007935	-0.057526	0.030365	-0.327	0.017242	-0.017242	-0.01236	0.011444	0.082855	0.04303	-0.01236	-0.015259	-0.001678	-0.015564	0.08255	-0.063019	0.12604	-0.04425	0.06134	0.47546	-0.036469	-0.028229	0.008698	-0.095215	0.052948	0.49835	0.72754	-0.001221	-0.004425
11.218	0.008087	-0.10223	0.13214	-0.006714	-0.0177	0.065002	-0.34241	0.015411	0.047607	-0.001831	0.007477	0.083313	0.022125	-0.048828	0.005493	-0.006866	-0.021667	0.007172	0.040283	0.026703	-0.08194	0.057526	0.46188	-0.03891	-0.027008	0.005646	0.026703	0.00824	-0.53741	0.51621	-0.001678	-0.020905
11.219	-0.00473	-0.06485	0.015259	-0.009918	0.042267	0.057983	-0.35904	0.04837	-0.072937	0.002289	0.010376	0.078125	0.012665	-0.074921	0.01358	0.004425	-0.049286	-0.092926	0.023804	-0.048676	-0.0914	0.024872	0.48309	-0.084076	-0.049133	-0.00412	0.071869	-0.007782	-0.58304	0.23453	-0.001678	-0.014038
11.22	0.01236	-0.010376	-0.1152	0.010681	0.039825	-0.20203	-0.41184	0.032043	-0.15701	0.024719	0.007019	0.080566	-0.012665	-0.11169	-0.010376	0.00351	-0.030975	-0.1091	-0.12833	-0.069275	-0.08728	-0.013275	0.46753	-0.10681	-0.046844	-0.013275	0.070648	-0.016785	-0.10437	0.024719	-0.003967	-0.017242
11.221	0.039063	0.036469	-0.17578	0.017242	-0.007629	-0.54001	-0.46906	0.023346	-0.098877	0.008545	0.007324	0.073395	0.00351	-0.084839	-0.003967	0.010681	-0.019531	-0.11017	0.009003	-0.084229	-0.086212	-0.031738	0.47714	-0.11154	-0.055695	0.000305	0.038605	0.00885	0.14664	-0.027313	-0.002136	-0.0177
11.222	0.032196	0.073853	-0.081024	0.032654	-0.032043	-0.31677	-0.39108	0.008545	-0.046234	0.010529	0.012665	0.068359	0.028229	-0.024414	-0.016785	0.017853	-0.007935	-0.076294	0.26733	-0.16632	-0.1152	-0.039978	0.49545	-0.12085	-0.048676	0.003662	0.023499	-0.011749	0.112	-0.032043	-0.003357	-0.010223
11.223	0.010376	0.078583	-0.02243	0.002899	-0.006256	-0.06073	-0.35141	-0.008392	-0.026855	0.019989	0.00946	0.060425	0.038147	0.002747	-0.034637	0.016174	-0.006714	-0.11337	0.20569	-0.11581	-0.12619	-0.047302	0.47684	-0.12024	-0.082855	0.009155	-0.016632	0.008545	0.21652	0.014801	-0.000305	-0.014191
11.224	-0.010071	0.075226	0.045929	-0.015411	-0.03067	0.1181	-0.3331	-0.022583	-0.000916	0.011749	0.010529	0.045166	-0.020599	0.062866	-0.03891	0.011749	0.010834	-0.16327	0.11368	-0.06958	-0.12634	-0.0383	0.50384	-0.097809	-0.041809	0.011444	-0.082092	-0.054626	0.12756	0.005188	-0.00061	-0.007782
11.225	-0.010681	0.10391	0.019836	-0.010071	-0.058746	0.20844	-0.28336	-0.025787	0.03952	0.014343	0.011902	0.038147	0.13962	0.10147	-0.048218	0.022888	-0.023956	-0.17181	0.053253	0.007324	-0.12756	-0.024872	0.44495	-0.038605	-0.037842	0.023804	-0.018463	-0.008545	0.001068	-0.11108	0.001984	-0.017242
11.226	-0.008698	0.1091	-0.017242	-0.001373	-0.10284	0.12085	-0.29923	-0.022278	0.059662	0.00473	-0.000153	0.040436	0.73868	0.058136	-0.027771	0.025787	-0.012207	-0.20508	-0.13962	-0.048828	-0.11917	-0.075073	0.44037	-0.072479	-0.043793	0.008545	-0.003967	-0.02655	-0.14465	-0.15213	-0.002594	-0.002136
11.227	-0.011749	0.099792	-0.014343	-0.003204	-0.14282	0.019379	-0.2829	-0.001068	0.020599	-0.008392	-0.007629	0.03418	0.99655	-0.004272	0.034943	0.015717	-0.030975	-0.23438	-0.20554	-0.070953	-0.12131	-0.08606	0.45471	-0.061493	-0.030212	0.012207	-0.09491	-0.023499	0.12833	-0.1564	-0.005035	-0.00885
11.228	-0.018311	0.09964	-0.022583	0.019989	-0.15457	-0.043488	-0.31128	0.00946	-0.002899	-0.014343	0.005035	0.033264	0.57007	-0.021973	0.075226	-0.000153	-0.031433	-0.23071	-0.31525	-0.06073	-0.097961	-0.089722	0.43198	-0.021667	-0.026245	0.010376	-0.062561	-0.021057	0.65567	-0.086365	-0.010223	-0.006256
11.229	-0.0177	0.14069	-0.11673	0.026855	-0.094299	-0.14114	-0.40085	0.040283	0.010834	0.016174	-0.011749	0.024109	-0.24719	-0.03418	0.11276	0.007172	-0.024567	-0.28381	-0.24765	-0.037842	-0.031281	-0.087128	0.43182	0.075073	-0.029449	0.011444	-0.017548	-0.0177	0.31876	-0.011444	-0.003967	-0.008545
11.23	-0.011902	0.22003	-0.096588	0.013733	0.028381	-0.15442	-0.42358	0.050812	0.004272	0.048981	0.005035	0.021057	-0.4422	-0.25879	0.027313	-0.001526	-0.019073	-0.23086	-0.11063	0.045929	0.010071	-0.071106	0.42511	0.10117	-0.009003	0.017395	0.047455	-0.016937	-0.37445	-0.099945	-0.00473	-0.009766
11.231	-0.004578	0.27435	-0.088348	-0.007324	0.054779	-0.075226	-0.36819	0.017853	0.045624	-0.022888	-0.000916	0.019836	0.011749	-0.47714	-0.050354	-0.003204	-0.011597	-0.20905	0.022736	-0.022583	0.006561	0.087433	0.38727	0.062714	-0.018768	0.016479	0.096741	-0.012207	-0.25009	-0.037537	-0.000458	-0.010071
11.232	-0.007935	0.25467	0.056152	-0.001831	0.02243	0.029297	-0.38132	-0.015106	0.16159	-0.035858	0.018463	0.011444	-0.39887	-0.41901	-0.14313	-0.007324	-0.003204	-0.17899	-0.062408	-0.056915	-0.00351	0.12528	0.37979	0.11841	-0.022278	0.014038	0.067749	-0.00946	-0.13153	0.084991	-0.000458	-0.009003
11.233	-0.008087	0.25131	0.14374	0.019836	0.023804	0.056915	-0.38895	-0.019073	0.19257	-0.036163	0.036011	0.009003	-0.51834	-0.10605	-0.18768	-0.013885	0.039978	-0.17456	-0.27908	-0.079193	0.003967	0.062103	0.35614	0.11398	-0.021515	0.021057	-0.027771	-0.006256	-0.24674	0.067749	0.001068	-0.005188
11.234	-0.010223	0.2356	0.21164	0.000305	0.031586	0.038452	-0.37003	-0.026093	0.26138	-0.045929	0.023651	0.007019	-0.64667	0.17212	-0.081635	-0.012665	0.068054	-0.25757	-0.32455	0.065918	-0.019073	0.035248	0.29984	0.084686	-0.017853	0.029602	-0.060577	0.002594	0.76096	-0.002136	-0.00061	-0.010071
11.235	-0.000763	0.25681	0.11292	0.004425	-0.003662	-0.065002	-0.40207	-0.016785	0.3006	-0.054474	-0.013123	-0.002289	-0.29709	0.10941	-0.043182	-0.019836	0.071411	-0.18326	-0.23972	0.17639	-0.03891	-0.025177	0.30487	0.086823	-0.020905	0.027466	0.013428	0.006409	0.23575	0.024719	-0.001526	-0.009003
11.236	-0.02594	0.19302	-0.018768	-0.014496	-0.10315	0.043945	-0.35141	-0.007172	0.31265	-0.029907	0.00061	-0.010986	-0.22263	-0.054932	-0.038452	-0.018921	0.063934	-0.2182	-0.10956	0.11536	-0.071259	-0.057678	0.2945	0.062561	-0.02121	0.00885	0.006561	-0.002594	0.23651	0.087891	0.000458	-0.010986
11.237	-0.019073	0.056763	0.062561	0.002747	-0.18631	0.12207	-0.31265	-0.009766	0.24765	-0.00061	0.019073	-0.015106	-0.13245	-0.112	-0.097046	-0.018463	0.04364	-0.3215	-0.012207	0.052032	-0.074005	-0.034943	0.30289	0.045319	-0.013123	-0.006714	-0.023804	-0.43182	-0.2005	0.032349	-0.002136	-0.007782
11.238	-0.015564	0.045013	0.25803	0.021667	-0.168	0.1619	-0.31281	-0.00885	-0.087433	-0.001831	-0.007629	-0.016479	0.044556	-0.058136	0.023956	-0.007172	0.053253	-0.29327	-0.018616	0.045471	-0.073242	-0.005188	0.36652	-0.001526	-0.02594	-0.011597	-0.089264	0.06958	0.12024	-0.050507	-0.001984	-0.013123
11.239	0.000305	0.008087	0.22903	0.018616	-0.15793	0.2449	-0.28076	-0.02182	-0.2655	-0.007935	-0.004578	-0.017853	0.024872	0.096741	0.10162	-0.009613	0.030212	-0.3093	-0.13031	0.050812	-0.065002	0.002136	0.31845	0.019531	-0.020142	-0.027618	-0.050354	0.20538	0.31952	0.019073	-0.003052	-0.018768
